# xmcd
#
# Track frame offsets: 
#        150
#        14300
#        24707
#        37156
#        50524
#        63014
#        76960
#        87230
#        100153
#        108272
#        119105
#        139906
#
# Disc length: 2009 seconds
#
# Revision: 3
# Processed by: cddbd v1.5.2PL0 Copyright (c) Steve Scherf et al.
# Submitted via: ExactAudioCopy v0.99pb5
#
DISCID=9e07d70c
DTITLE=Dr John - Trader John's Crawfish Soiree [CD1]
DYEAR=2007
DGENRE=Blues
TTITLE0=You're Just Too Square (You Ain't Nowhere)
TTITLE1=Trader John
TTITLE2=Cat And Mouse Game
TTITLE3=Helping Hand
TTITLE4=Go Ahead On
TTITLE5=Loser For You
TTITLE6=One Night Late
TTITLE7=I Pulled The Cover Offa You Two Lovers
TTITLE8=New Orleans
TTITLE9=The Ear Is On Strike
TTITLE10=Just Like A Mirror
TTITLE11=Della (Part 1)
EXTD=
EXTT0=
EXTT1=
EXTT2=
EXTT3=
EXTT4=
EXTT5=
EXTT6=
EXTT7=
EXTT8=
EXTT9=
EXTT10=
EXTT11=
PLAYORDER=
